# xmcd
#
# Track frame offsets:
# 150
# 18250
# 35538
# 57425
# 77450
# 92363
# 107625
# 121375
# 146788
# 168288
# 184713
# 204925
# 218963
# 234750
# 256563
# 272200
#
# Disc length: 3902 seconds
#
#
# Revision: 4
# Processed by: cddbd v1.5.2PL0 Copyright (c) Steve Scherf et al.
# Submitted via: FreeRIP 2.945 
#
DISCID=cb0f3c10
DTITLE=Various Artist - Synthesizer Collection Vol. 2
DYEAR=1991
DGENRE=Synthpop
TTITLE0=Jarre - Fourth Rendez Vouz
TTITLE1=Jarre - Equinoxe (Part 5)
TTITLE2=Papathanassiou-Anderson - I Hear You Now
TTITLE3=Moroder/Whitlock - Take My Breath Away
TTITLE4=Hammer - Rico's Blues
TTITLE5=Ruseler - Tattoo
TTITLE6=Leeson - For Your Eyes Only
TTITLE7=Priestman - Words
TTITLE8=Papathanassiou - First Approach
TTITLE9=Tennant/Lowe - In Private
TTITLE10=Andersson/Ulvaeus/Rice - I Know Him So Well
TTITLE11=Russel - Sunday
TTITLE12=Papathanassiou - To The Unknown Man
TTITLE13=Lai - Emanuelle 2
TTITLE14=Lai - Bilitis
TTITLE15=Papathanassiou - Eric's Theme
EXTD=YEAR: 1991
EXTT0=
EXTT1=
EXTT2=
EXTT3=
EXTT4=
EXTT5=
EXTT6=
EXTT7=
EXTT8=
EXTT9=
EXTT10=
EXTT11=
EXTT12=
EXTT13=
EXTT14=
EXTT15=
PLAYORDER=
